<svg xmlns="http://www.w3.org/2000/svg" width="32" height="31.212" viewBox="0 0 32 31.212">
    <path data-name="317712_code repository_github_repository_resource_icon" d="M16.007 0a16 16 0 0 0-5.056 31.184c.8.146 1.052-.328 1.052-.752 0-.38.008-1.442 0-2.778-4.45.967-5.372-2.108-5.372-2.108a4.237 4.237 0 0 0-1.775-2.341c-1.452-.992.109-.973.109-.973a3.364 3.364 0 0 1 2.452 1.649 3.408 3.408 0 0 0 4.655 1.329 3.424 3.424 0 0 1 1.017-2.14C9.535 22.668 5.8 21.3 5.8 15.164a6.183 6.183 0 0 1 1.646-4.293A5.744 5.744 0 0 1 7.6 6.636s1.343-.43 4.4 1.641a15.18 15.18 0 0 1 8.012 0c3.056-2.071 4.4-1.641 4.4-1.641a5.754 5.754 0 0 1 .159 4.235 6.181 6.181 0 0 1 1.644 4.293c0 6.148-3.741 7.5-7.306 7.895A3.784 3.784 0 0 1 20 26.006v4.429c0 .428.258.9 1.07.746A16 16 0 0 0 16.007 0z" transform="translate(-.008)" style="fill:#00ffd2;fill-rule:evenodd"/>
</svg>
