<svg xmlns="http://www.w3.org/2000/svg" width="32" height="32" viewBox="0 0 32 32">
    <path data-name="Trazado 17" d="M16 0a16 16 0 1 0 16 16A16 16 0 0 0 16 0zm-4.156 22.277H8.58v-9.82h3.264zm-1.632-11.161h-.021a1.7 1.7 0 1 1 .042-3.393 1.7 1.7 0 1 1-.021 3.393zm13.4 11.161h-3.263v-5.254c0-1.32-.472-2.22-1.654-2.22A1.786 1.786 0 0 0 17.021 16a2.24 2.24 0 0 0-.108.8v5.484H13.65s.043-8.9 0-9.82h3.264v1.391a3.239 3.239 0 0 1 2.942-1.622c2.147 0 3.757 1.4 3.757 4.42v5.631z" style="fill:#00ffd2"/>
</svg>
