<svg xmlns="http://www.w3.org/2000/svg" width="88" height="88" viewBox="0 0 88 88">
    <path style="fill:none" d="M0 0h88v88H0z"/>
    <path data-name="Trazado 4" d="M611.193 513.367a21.994 21.994 0 0 0 .019 2.684 3.957 3.957 0 0 0 3.275 3.267 10.213 10.213 0 0 0 1.52.1q34.675.007 69.349 0a10.564 10.564 0 0 0 1.431-.091 3.967 3.967 0 0 0 3.4-3.447 23.846 23.846 0 0 0 .015-2.516c-.379 0-.728-.008-1.077 0-5.224.14-5.262-.14-5.241-5.277.05-12.688.017-25.377.017-38.066 0-1.935-.185-2.178-2.013-2.645a2.254 2.254 0 0 1-1.72-2.573 2.3 2.3 0 0 1 2.54-1.775 6.043 6.043 0 0 1 5.586 6.339q.008 19.123 0 38.245v1.311h3.346c2.3 0 3.1.761 3.047 3.066a25.855 25.855 0 0 1-.383 5.531 8.191 8.191 0 0 1-7.904 6.28c-.269.013-.539.012-.808.012q-34.9 0-69.8.006a8.612 8.612 0 0 1-9.075-8.712 85.6 85.6 0 0 1 0-3.689 2.309 2.309 0 0 1 2.463-2.485c1.253-.029 2.508-.006 3.919-.006v-1.191q0-19.167-.009-38.336a6.109 6.109 0 0 1 2.309-5.2 5.814 5.814 0 0 1 3.418-1.19 2.182 2.182 0 0 1 .551 4.3c-1.873.487-1.895.515-1.895 2.5v40.585c0 2.209-.757 2.97-2.95 2.971z" transform="translate(-606.693 -437.163)" style="fill:#00ffd2"/>
    <path data-name="Trazado 5" d="M696.187 363.266c1.584-.635 2.951-1.156 4.288-1.745a1.119 1.119 0 0 0 .51-.761c.1-.647.027-1.32.123-1.968a3.721 3.721 0 0 1 3.629-3.24c1.5-.045 2.993-.033 4.49-.011a3.85 3.85 0 0 1 3.944 3.825c.1 2 .108 1.973 2 2.7.887.34 1.735.783 2.775 1.26a17.675 17.675 0 0 1 1.279-1.449 3.756 3.756 0 0 1 5.405.024 83.57 83.57 0 0 1 3.052 3.049 3.873 3.873 0 0 1 .015 5.634c-1.274 1.373-1.255 1.364-.491 3.033.348.759.559 1.583.924 2.332a1.333 1.333 0 0 0 .816.571 6.36 6.36 0 0 0 1.251.031 3.715 3.715 0 0 1 3.89 3.652 35.754 35.754 0 0 1-.035 5.029 3.691 3.691 0 0 1-3.645 3.419c-.685.033-1.373.005-1.987.005-.638 1.476-1.259 2.866-1.826 4.279a.927.927 0 0 0 .191.751c.374.465.849.847 1.23 1.307a3.7 3.7 0 0 1 .033 4.8 43.353 43.353 0 0 1-3.805 3.811 3.5 3.5 0 0 1-4.954-.277c-1.143-1.294-2.085-1.37-3.447-.484-.733.477-1.944.431-2.419 1.033-.455.578-.185 1.7-.325 2.562a3.8 3.8 0 0 1-3.75 3.245 55.535 55.535 0 0 1-4.489 0 3.894 3.894 0 0 1-3.852-4.121c-.048-1.733-.053-1.717-1.67-2.306a10.537 10.537 0 0 1-1.96-.873 1.156 1.156 0 0 0-1.794.341 4.055 4.055 0 0 1-.569.573 3.8 3.8 0 0 1-5.481.013c-1.049-.982-2.064-2-3.049-3.052a3.843 3.843 0 0 1 .028-5.628c1.25-1.337 1.233-1.329.481-2.961a15.354 15.354 0 0 1-.824-2.179.965.965 0 0 0-1.131-.827 7.923 7.923 0 0 1-2.3-.195 3.519 3.519 0 0 1-2.617-3.286 58.373 58.373 0 0 1 0-5.124 3.7 3.7 0 0 1 3.656-3.5c.7-.031 1.573.146 2.064-.2.463-.327.507-1.227.772-1.859a22.2 22.2 0 0 1 .946-2.033.706.706 0 0 0-.173-1.008 12.35 12.35 0 0 1-1.181-1.231 3.661 3.661 0 0 1-.008-4.855 46.579 46.579 0 0 1 3.6-3.642 3.674 3.674 0 0 1 5.06.051 17.333 17.333 0 0 1 1.33 1.485zM684.5 384.178c.1.049.152.1.2.1.838.013 1.676.016 2.513.029a2.271 2.271 0 0 1 2.585 1.973 19.857 19.857 0 0 0 2.456 5.947 2.322 2.322 0 0 1-.425 3.309c-.623.634-1.272 1.244-2.008 1.961.5.455.913.795 1.277 1.186s.666.829 1.067 1.338c.793-.838 1.376-1.483 1.99-2.1 1.146-1.143 2-1.275 3.363-.437a19.349 19.349 0 0 0 5.768 2.4c1.587.37 2.113 1.1 2.13 2.748.009.856 0 1.713 0 2.628h3.315c0-.981-.011-1.844 0-2.708a2.332 2.332 0 0 1 2.039-2.638 20.218 20.218 0 0 0 5.932-2.472 2.226 2.226 0 0 1 3.216.41c.649.648 1.246 1.348 1.737 1.883l2.481-2.451c-.609-.583-1.3-1.2-1.945-1.872a2.188 2.188 0 0 1-.422-2.94 21.76 21.76 0 0 0 2.634-6.357 2.134 2.134 0 0 1 2.353-1.79c.95-.017 1.9 0 2.894 0v-3.38c-.968 0-1.889.01-2.809 0a2.218 2.218 0 0 1-2.47-1.885 20.337 20.337 0 0 0-2.524-6.111 2.273 2.273 0 0 1 .411-3.165c.642-.657 1.32-1.281 2.141-2.074-.533-.445-.973-.762-1.349-1.142s-.682-.818-1.061-1.281c-.756.77-1.337 1.374-1.932 1.964-1.227 1.219-2.06 1.346-3.51.453a18.958 18.958 0 0 0-5.6-2.334c-1.694-.4-2.206-1.111-2.216-2.864v-2.479h-3.315c0 .929.011 1.794 0 2.658a2.324 2.324 0 0 1-2.028 2.644 20.451 20.451 0 0 0-5.932 2.474 2.233 2.233 0 0 1-3.222-.4c-.652-.648-1.251-1.348-1.749-1.889l-2.542 2.428c.593.556 1.219 1.112 1.811 1.7a2.4 2.4 0 0 1 .417 3.524 19.211 19.211 0 0 0-2.329 5.615c-.4 1.664-1.055 2.144-2.8 2.149h-2.545z" transform="translate(-663.064 -354.576)" style="fill:#00ffd2"/>
    <path data-name="Trazado 6" d="M690.048 663.785h11.029a10.915 10.915 0 0 1 .257-1.144 2.257 2.257 0 0 1 2.234-1.5q10.058-.021 20.115 0a2.279 2.279 0 0 1 2.4 2.271 2.314 2.314 0 0 1-2.5 2.165q-8.756.012-17.511-.008a1.325 1.325 0 0 0-1.306.672 3.742 3.742 0 0 1-3.19 1.884q-5.97.058-11.941 0a3.809 3.809 0 0 1-3.271-1.91 1.255 1.255 0 0 0-1.228-.653c-5.747.022-11.495.015-17.242.009a4.579 4.579 0 0 1-1.155-.1 2.183 2.183 0 0 1 .157-4.269 6.226 6.226 0 0 1 1.161-.073q9.384-.006 18.769 0c2.18.007 2.71.429 3.222 2.656z" transform="translate(-651.554 -589.391)" style="fill:#00ffd2"/>
    <path data-name="Trazado 7" d="M757.913 445.256a11.74 11.74 0 1 1 11.675-11.756 11.727 11.727 0 0 1-11.675 11.756zm.087-19.033a7.3 7.3 0 1 0 7.2 7.341 7.343 7.343 0 0 0-7.2-7.341z" transform="translate(-713.88 -405.482)" style="fill:#00ffd2"/>
</svg>
