<svg xmlns="http://www.w3.org/2000/svg" width="88.381" height="88" viewBox="0 0 88.381 88">
    <path style="fill:none" d="M0 0h87.964v87.964H0z"/>
    <path data-name="Trazado 28" d="M1136.822 398.639v-.422a2.279 2.279 0 0 0-2.31-2.423h-.024a2.326 2.326 0 0 0-2.291 2.556c-.006 1.135-.005 2.27 0 3.4v2.058c0 1.725-.507 2.224-2.252 2.225h-13.907c-.194 0-.394-.012-.587-.024l-.161-.009v-5.618h3.135c1.811 0 3.62 0 5.43-.008a2.262 2.262 0 0 0 2.131-1.447 2.118 2.118 0 0 0-.408-2.372 2.615 2.615 0 0 0-2.111-.811c-2.264.01-4.565.006-6.791 0h-.565c-.215 0-.43-.015-.638-.028l-.193-.012-.021-.055a.38.38 0 0 1-.027-.081q0-1.383-.005-2.767 0-2.377-.013-4.753a2.385 2.385 0 0 0-2.566-2.583 544.467 544.467 0 0 0-4.6-.007H1104.929v-7.868a2.98 2.98 0 0 0-.775-2.175 2.193 2.193 0 0 0-1.6-.6c-1.408.023-2.285 1.077-2.287 2.751V385.433h-5.664v-1.014q0-2.111.005-4.221c.007-3.283.014-6.678-.032-10.016a5.841 5.841 0 0 0-5.3-5.9 59.246 59.246 0 0 0-6.24-.121q-.6.01-1.208.018a2.273 2.273 0 0 0-2.07 1.906 2.158 2.158 0 0 0 1.258 2.41 4.456 4.456 0 0 0 1.611.281c1.156.022 2.33.018 3.467.015h1.649c1.766 0 2.25.479 2.251 2.211q.005 6.8 0 13.609c0 .211-.012.425-.025.631q0 .088-.01.174h-5.617q0-1.055.007-2.1c.01-2.03.019-3.948-.042-5.906a3.522 3.522 0 0 0-.792-1.972 1.938 1.938 0 0 0-2.363-.456 2.343 2.343 0 0 0-1.48 2.306q-.007 2.613 0 5.227v2.991h-7.469c-1.912.008-2.8.9-2.809 2.792V395.739l-.089.029a.467.467 0 0 1-.1.027h-2.762q-2.342 0-4.685.012a2.346 2.346 0 0 0-2.591 2.263 2.173 2.173 0 0 0 .6 1.589 2.794 2.794 0 0 0 2 .759c.878.011 1.769.009 2.631.006h4.993v5.611h-4.988c-3.107 0-6.319-.008-9.479.009a6.034 6.034 0 0 0-6.37 5.915c-.112 1.76-.088 3.557-.065 5.294l.014 1.157a2.7 2.7 0 0 0 .787 1.921 2.054 2.054 0 0 0 1.486.594 2.414 2.414 0 0 0 2.348-2.622c.005-1.138 0-2.276 0-3.415v-1.958c0-1.776.457-2.236 2.215-2.237q6.638-.005 13.278 0c.191 0 .385.015.573.03l.154.012v5.572h-2.216a364.851 364.851 0 0 0-5.452.013 2.638 2.638 0 0 0-1.888.747 2.241 2.241 0 0 0-.622 1.614 2.372 2.372 0 0 0 2.586 2.279q2.406.01 4.814 0h2.872v7.447c.005 1.916.89 2.812 2.785 2.819q1.949.008 3.9 0h2.742c.21 0 .425.014.653.029l.248.015v2.984c0 1.565 0 3.183.009 4.774a2.372 2.372 0 0 0 2.29 2.489h.02a2.373 2.373 0 0 0 2.3-2.458c.015-1.469.013-2.963.01-4.408v-3.373h5.653V445.519c.011 4 2.62 6.589 6.647 6.6.892 0 1.775.006 2.656.006 1 0 2 0 3-.013a3.187 3.187 0 0 0 1.177-.195 2.277 2.277 0 0 0-.786-4.4c-1.331-.038-2.685-.036-3.994-.035h-1.84c-1.73-.009-2.2-.472-2.206-2.155q-.007-6.67 0-13.34c0-.187.019-.38.037-.567l.016-.164h5.571v2.919c0 1.571-.009 3.2.014 4.8a2.647 2.647 0 0 0 .77 1.9 2.195 2.195 0 0 0 1.6.619 2.387 2.387 0 0 0 2.279-2.594c.007-1.6.005-3.208 0-4.812v-2.884h2.273c1.874 0 3.644 0 5.442-.006a2.332 2.332 0 0 0 2.569-2.551c.015-1.509.012-3.044.009-4.528v-3.109l.083-.032a.462.462 0 0 1 .088-.029l3.257-.006q2.364 0 4.728-.01c1.631-.006 2.729-.942 2.733-2.329s-1.089-2.336-2.721-2.341q-2.6-.008-5.2 0h-2.956v-5.631h1.106q2.18-.007 4.36 0c3.394 0 6.9.009 10.355-.071a5.793 5.793 0 0 0 5.646-5.548c.104-2.113.082-4.279.061-6.374zm-26.322-8.411v36.3h-36.379v-36.3z" transform="translate(-1048.458 -364.144)" style="fill:#00ffd2"/>
    <path data-name="Trazado 29" d="M1177.513 518.438c0 1.871.873 2.744 2.74 2.747 3.417.005 6.88.008 10.367.008 3.582 0 7.188 0 10.793-.009a2.334 2.334 0 0 0 2.6-2.609c.011-7.06.011-14.195 0-21.205a2.378 2.378 0 0 0-2.689-2.624q-10.535-.006-21.07 0a2.439 2.439 0 0 0-2.744 2.755V511l.003 7.438zm21.827-18.991v17.093h-17.14v-17.093z" transform="translate(-1146.9 -463.766)" style="fill:#00ffd2"/>
</svg>
