<svg xmlns="http://www.w3.org/2000/svg" width="88" height="88" viewBox="0 0 88 88">
    <path style="fill:none" d="M0 0h88v88H0z"/>
    <path data-name="Trazado 22" d="m1574.031 388.248-30.511-14.32a2.487 2.487 0 0 0-2.117 0l-30.51 14.32a2.487 2.487 0 0 0 0 4.5l30.511 14.323a2.52 2.52 0 0 0 2.116 0l30.51-14.322a2.487 2.487 0 0 0 0-4.5zm-31.569 13.825-.068-.032-24.588-11.541 24.656-11.571.068.032 24.587 11.539z" transform="translate(-1498.462 -368.017)" style="fill:#00ffd2"/>
    <path data-name="Trazado 23" d="M1575.31 509.817a2.488 2.488 0 0 0-3.4-3.1l-29.452 13.822-29.453-13.822a2.487 2.487 0 1 0-2.117 4.5l30.512 14.321a2.524 2.524 0 0 0 2.117 0l30.51-14.32a2.467 2.467 0 0 0 1.283-1.401z" transform="translate(-1498.458 -472.168)" style="fill:#00ffd2"/>
    <path data-name="Trazado 24" d="M1575.309 576.211a2.489 2.489 0 0 0-3.4-3.1l-29.452 13.824-29.453-13.825a2.487 2.487 0 1 0-2.116 4.5l30.512 14.33a2.524 2.524 0 0 0 2.117 0l30.51-14.322a2.471 2.471 0 0 0 1.282-1.407z" transform="translate(-1498.458 -524.241)" style="fill:#00ffd2"/>
    <path data-name="Trazado 25" d="M1575.309 642.614a2.488 2.488 0 0 0-3.4-3.1l-29.454 13.823-29.453-13.822a2.488 2.488 0 1 0-2.117 4.5l30.511 14.32a2.523 2.523 0 0 0 2.117 0l30.51-14.32a2.469 2.469 0 0 0 1.286-1.401z" transform="translate(-1498.458 -576.321)" style="fill:#00ffd2"/>
</svg>
